<?xml version="1.0" encoding="UTF-8"?>
<!DOCTYPE svg PUBLIC "-//W3C//DTD SVG 1.1//EN" "http://www.w3.org/Graphics/SVG/1.1/DTD/svg11.dtd">
<svg xmlns="http://www.w3.org/2000/svg" version="1.1" width="192px" height="192px" style="shape-rendering:geometricPrecision; text-rendering:geometricPrecision; image-rendering:optimizeQuality; fill-rule:evenodd; clip-rule:evenodd" xmlns:xlink="http://www.w3.org/1999/xlink">
<g><path style="opacity:1" fill="#ffd958" d="M 121.5,2.5 C 123.017,2.51056 124.184,3.17723 125,4.5C 125.667,10.1667 125.667,15.8333 125,21.5C 122.224,23.1397 120.224,22.473 119,19.5C 118.333,15.1667 118.333,10.8333 119,6.5C 119.48,4.86698 120.313,3.53365 121.5,2.5 Z"/></g>
<g><path style="opacity:1" fill="#fed75c" d="M 143.5,15.5 C 146.127,15.2933 147.793,16.46 148.5,19C 147.528,21.1113 146.695,23.2779 146,25.5C 144.274,26.5762 142.441,26.7429 140.5,26C 139.535,22.0561 140.535,18.5561 143.5,15.5 Z"/></g>
<g><path style="opacity:0.49" fill="#fed85e" d="M 98.5,15.5 C 102.933,15.7766 105.267,18.2766 105.5,23C 104.944,26.4387 103.111,27.272 100,25.5C 97.6036,22.3697 97.1036,19.0364 98.5,15.5 Z"/></g>
<g><path style="opacity:0.997" fill="#ffd65d" d="M 73.5,22.5 C 74.8734,22.3433 76.2068,22.51 77.5,23C 81,26.5 84.5,30 88,33.5C 88.5,37 87,38.5 83.5,38C 80,34.5 76.5,31 73,27.5C 72.3603,25.735 72.5269,24.0683 73.5,22.5 Z"/></g>
<g><path style="opacity:1" fill="#ffd85e" d="M 167.5,22.5 C 171.677,21.8416 173.177,23.5082 172,27.5C 168.5,31 165,34.5 161.5,38C 158,38.5 156.5,37 157,33.5C 160.704,29.9643 164.204,26.2976 167.5,22.5 Z"/></g>
<g><path style="opacity:1" fill="#fed15a" d="M 144.5,36.5 C 148.723,42.952 151.89,49.952 154,57.5C 154.667,62.5 154.667,67.5 154,72.5C 151.891,77.9507 150.391,83.284 149.5,88.5C 138.507,72.4536 124.507,69.2869 107.5,79C 99.9208,84.9922 96.2541,92.8255 96.5,102.5C 94.7085,102.634 93.0418,102.301 91.5,101.5C 83.0572,91.4123 79.3905,79.7456 80.5,66.5C 85.0079,43.8306 98.8412,31.4972 122,29.5C 125.869,29.7281 129.702,30.2281 133.5,31C 137.787,31.81 141.454,33.6433 144.5,36.5 Z"/></g>
<g><path style="opacity:1" fill="#fec545" d="M 144.5,36.5 C 159.771,45.7451 166.605,59.4117 165,77.5C 163.813,85.2014 160.98,92.2014 156.5,98.5C 155.167,98.5 153.833,98.5 152.5,98.5C 151.899,95.0321 150.899,91.6988 149.5,88.5C 150.391,83.284 151.891,77.9507 154,72.5C 154.667,67.5 154.667,62.5 154,57.5C 151.89,49.952 148.723,42.952 144.5,36.5 Z"/></g>
<g><path style="opacity:1" fill="#ffd65d" d="M 173.5,47.5 C 178.123,46.4082 179.956,48.0748 179,52.5C 176.237,54.9702 173.07,55.8035 169.5,55C 167.963,51.0245 169.297,48.5245 173.5,47.5 Z"/></g>
<g><path style="opacity:0.516" fill="#ffd95e" d="M 67.5,46.5 C 70.3113,46.8257 72.978,47.6591 75.5,49C 77.087,51.8652 76.4203,54.0319 73.5,55.5C 69.9033,54.8795 67.2366,53.0462 65.5,50C 65.9783,48.6974 66.645,47.5307 67.5,46.5 Z"/></g>
<g><path style="opacity:1" fill="#06c0f9" d="M 80.5,66.5 C 79.3905,79.7456 83.0572,91.4123 91.5,101.5C 87.4051,103.759 84.0718,106.926 81.5,111C 78.24,110.518 74.9066,110.518 71.5,111C 69.9625,112.707 68.2959,114.207 66.5,115.5C 46.4972,115.667 26.4972,115.5 6.5,115C 1.93146,112.459 0.431461,108.625 2,103.5C 6.24539,99.3072 11.4121,97.6406 17.5,98.5C 18.8552,89.6458 24.0218,84.6458 33,83.5C 36.33,68.506 45.6634,60.1726 61,58.5C 68.4191,59.1323 74.9191,61.799 80.5,66.5 Z"/></g>
<g><path style="opacity:1" fill="#fed75d" d="M 191.5,70.5 C 191.5,71.8333 191.5,73.1667 191.5,74.5C 185.582,75.621 179.582,75.7876 173.5,75C 172.167,73.3333 172.167,71.6667 173.5,70C 179.582,69.2124 185.582,69.379 191.5,70.5 Z"/></g>
<g><path style="opacity:1" fill="#f3d05f" d="M 54.5,69.5 C 59.8437,69.334 65.1771,69.5006 70.5,70C 71.8333,71.6667 71.8333,73.3333 70.5,75C 65.1667,75.6667 59.8333,75.6667 54.5,75C 53.2475,73.1722 53.2475,71.3388 54.5,69.5 Z"/></g>
<g><path style="opacity:1" fill="#99e6fb" d="M 149.5,88.5 C 150.899,91.6988 151.899,95.0321 152.5,98.5C 153.833,98.5 155.167,98.5 156.5,98.5C 159.09,99.1283 161.423,100.295 163.5,102C 164.823,102.816 165.489,103.983 165.5,105.5C 165.615,110.529 163.615,114.363 159.5,117C 128.125,117.181 96.7915,117.681 65.5,118.5C 66.1098,117.609 66.4431,116.609 66.5,115.5C 68.2959,114.207 69.9625,112.707 71.5,111C 74.9066,110.518 78.24,110.518 81.5,111C 84.0718,106.926 87.4051,103.759 91.5,101.5C 93.0418,102.301 94.7085,102.634 96.5,102.5C 96.2541,92.8255 99.9208,84.9922 107.5,79C 124.507,69.2869 138.507,72.4536 149.5,88.5 Z"/></g>
<g><path style="opacity:1" fill="#f6d15b" d="M 71.5,89.5 C 75.0714,89.4077 76.2381,91.0743 75,94.5C 72.8083,95.3995 70.6416,96.3995 68.5,97.5C 67.1667,96.8333 66.1667,95.8333 65.5,94.5C 67.1619,92.3483 69.1619,90.6817 71.5,89.5 Z"/></g>
<g><path style="opacity:1" fill="#ffd45c" d="M 169.5,89.5 C 172.311,89.8257 174.978,90.6591 177.5,92C 180.326,94.8641 179.826,97.0308 176,98.5C 172.348,97.7513 169.515,95.918 167.5,93C 168.305,91.8873 168.972,90.7206 169.5,89.5 Z"/></g>
<g><path style="opacity:1" fill="#65dcfb" d="M 165.5,105.5 C 167.448,107.32 168.448,109.654 168.5,112.5C 174.001,111.64 178.834,112.973 183,116.5C 185.702,121.82 184.535,125.987 179.5,129C 143.5,129.667 107.5,129.667 71.5,129C 67.5675,126.576 65.5675,123.076 65.5,118.5C 96.7915,117.681 128.125,117.181 159.5,117C 163.615,114.363 165.615,110.529 165.5,105.5 Z"/></g>
<g><path style="opacity:1" fill="#cbf2fe" d="M -0.5,145.5 C -0.5,144.5 -0.5,143.5 -0.5,142.5C 0.28913,142.217 0.955796,141.717 1.5,141C 13.5,140.667 25.5,140.333 37.5,140C 38.7472,138.506 38.7472,137.006 37.5,135.5C 33.3004,134.863 29.1337,134.196 25,133.5C 24.2797,131.888 24.4464,130.388 25.5,129C 32.469,126.325 38.6357,127.492 44,132.5C 46.8864,139.563 44.7197,144.396 37.5,147C 25.5,147.667 13.5,147.667 1.5,147C 0.955796,146.283 0.28913,145.783 -0.5,145.5 Z"/></g>
<g><path style="opacity:1" fill="#ccf4fe" d="M -0.5,160.5 C -0.5,158.833 -0.5,157.167 -0.5,155.5C 15.7593,154.349 32.0926,154.183 48.5,155C 51.1667,157 51.1667,159 48.5,161C 32.1225,161.804 15.7892,161.637 -0.5,160.5 Z"/></g>
<g><path style="opacity:1" fill="#cdf4fe" d="M 114.5,141.5 C 120.572,140.777 126.072,142.111 131,145.5C 134.315,152.62 132.482,157.787 125.5,161C 109.5,161.667 93.5,161.667 77.5,161C 74.967,158.916 74.967,156.916 77.5,155C 93.1667,154.667 108.833,154.333 124.5,154C 127.167,152.333 127.167,150.667 124.5,149C 120.833,148.667 117.167,148.333 113.5,148C 110.777,145.341 111.11,143.175 114.5,141.5 Z"/></g>
<g><path style="opacity:1" fill="#cdf4fe" d="M 57.5,154.5 C 60.5184,154.335 63.5184,154.502 66.5,155C 67.9348,157.267 67.6015,159.267 65.5,161C 58.7913,163.104 56.1246,160.937 57.5,154.5 Z"/></g>
<g><path style="opacity:1" fill="#ccf3fe" d="M 26.5,168.5 C 50.5023,168.333 74.5023,168.5 98.5,169C 106.945,171.391 109.279,176.558 105.5,184.5C 104.5,185.333 103.5,186.167 102.5,187C 97.9534,188.545 93.2867,188.879 88.5,188C 86.4848,186.445 86.1515,184.611 87.5,182.5C 91.4452,181.732 95.4452,181.232 99.5,181C 100.991,178.978 100.658,177.312 98.5,176C 73.8333,175.667 49.1667,175.333 24.5,175C 22.0478,172.04 22.7145,169.873 26.5,168.5 Z"/></g>
<g><path style="opacity:1" fill="#ccf3fe" d="M 113.5,168.5 C 129.89,168.06 146.224,168.56 162.5,170C 168.329,174.633 168.996,179.967 164.5,186C 159.43,188.424 154.097,189.091 148.5,188C 145.833,186 145.833,184 148.5,182C 152.167,181.667 155.833,181.333 159.5,181C 161.781,179.518 161.781,177.851 159.5,176C 143.5,175.667 127.5,175.333 111.5,175C 109.933,172.094 110.6,169.928 113.5,168.5 Z"/></g>
<g><path style="opacity:1" fill="#cef5fe" d="M -0.5,174.5 C -0.5,173.167 -0.5,171.833 -0.5,170.5C 4.61702,168.503 9.95035,168.003 15.5,169C 18.473,170.224 19.1397,172.224 17.5,175C 11.418,175.788 5.41804,175.621 -0.5,174.5 Z"/></g>
</svg>
